<svg width="20" height="20" viewBox="0 0 20 20" fill="none" xmlns="http://www.w3.org/2000/svg">
<path d="M15.4167 15.9417C16.6667 14.8083 16.6667 12.65 16.6667 11.6667C16.6667 10.7826 16.3155 9.93477 15.6904 9.30964C15.0652 8.68452 14.2174 8.33333 13.3333 8.33333C12.75 8.33333 12.1667 8.5 11.6667 8.8V5C11.6667 4.33696 11.4033 3.70107 10.9344 3.23223C10.4656 2.76339 9.82971 2.5 9.16667 2.5C8.54167 2.5 7.95833 2.74167 7.5 3.15C7.0419 2.73952 6.44843 2.51253 5.83333 2.51253C5.21823 2.51253 4.62477 2.73952 4.16667 3.15C3.70833 2.73333 3.11667 2.5 2.5 2.5V4.16667C2.72101 4.16667 2.93298 4.25446 3.08926 4.41074C3.24554 4.56702 3.33333 4.77899 3.33333 5V13.3333H5V5C5 4.77899 5.0878 4.56702 5.24408 4.41074C5.40036 4.25446 5.61232 4.16667 5.83333 4.16667C6.05435 4.16667 6.26631 4.25446 6.42259 4.41074C6.57887 4.56702 6.66667 4.77899 6.66667 5V13.3333H8.33333V5C8.33333 4.77899 8.42113 4.56702 8.57741 4.41074C8.73369 4.25446 8.94565 4.16667 9.16667 4.16667C9.38768 4.16667 9.59964 4.25446 9.75592 4.41074C9.9122 4.56702 10 4.77899 10 5V11.6667C10 12.65 10 14.8083 11.25 15.9417C10.6 16.2833 9.9 16.5333 9.16667 16.6667V18.3333C10.2417 18.3333 12.3667 17.2833 13.3333 16.775C14.3 17.2833 16.425 18.3333 17.5 18.3333V16.6667C16.7667 16.5333 16.0667 16.2833 15.4167 15.9417ZM13.3333 10C13.7754 10 14.1993 10.1756 14.5118 10.4882C14.8244 10.8007 15 11.2246 15 11.6667C15 14.1 14.55 15 13.3333 15C12.1167 15 11.6667 14.1 11.6667 11.6667C11.6667 11.2246 11.8423 10.8007 12.1548 10.4882C12.4674 10.1756 12.8913 10 13.3333 10Z" fill="white"/>
</svg>
