<svg width="20" height="20" viewBox="0 0 20 20" fill="none" xmlns="http://www.w3.org/2000/svg">
<path d="M5.41683 11.25C6.28042 11.0243 7.92271 9.93055 8.3335 9.58334V6.66668L5.8335 5.83334C5.66233 5.15818 5.13121 3.79631 4.5835 3.33334L3.98007 5.21414C2.89604 5.69639 1.12498 7.87039 2.08349 10.4167C2.50016 11.25 3.36554 14.1667 4.5835 16.25" stroke="white" stroke-width="1.44841" stroke-linecap="round" stroke-linejoin="round"/>
<path d="M10.0001 5.50224C11.8297 5.19953 15.6354 5.53249 16.2208 9.28595C16.3428 9.84095 16.1477 12.5036 14.3912 13.7144C14.0374 13.9583 13.7501 14.9999 13.7501 16.2499" stroke="white" stroke-width="1.44841" stroke-linecap="round" stroke-linejoin="round"/>
<path d="M10.8335 16.6666C10.8335 15.7462 10.0872 15 9.16679 15C8.24633 15 7.50012 15.7462 7.50012 16.6666" stroke="white" stroke-width="1.44841" stroke-linecap="round"/>
<path d="M16.2501 9.99999C16.4585 10.4167 17.3745 10.6956 18.0117 10.0424C18.3826 9.66207 18.6862 8.47245 17.7493 7.91666" stroke="white" stroke-width="1.44841" stroke-linecap="round" stroke-linejoin="round"/>
</svg>
